<svg id="Capa_1" data-name="Capa 1" xmlns="http://www.w3.org/2000/svg" viewBox="0 0 45.1 45.1"><defs><style>.cls-1{fill:#fff;}</style></defs><title>Artboard 1</title><path class="cls-1" d="M17,44.4a2.17,2.17,0,0,0,3.27-.09c8.16-9.74,19.14-21.88,23.25-24.06a2.85,2.85,0,0,0,1.52-2.43V1.93A1.82,1.82,0,0,0,43.27,0,2,2,0,0,0,42,.49c-3.07,2.56-17.81,15.3-22.72,28l-4.69-7.63a2.38,2.38,0,0,0-3.12-.78l-10.36,6a2,2,0,0,0-.33,3.34C2.91,31.31,13.75,41,17,44.4ZM12.38,23,18,32.14a1.88,1.88,0,0,0,1.6,1,1.84,1.84,0,0,0,1.74-1.43C24.44,20.78,36.79,9,42.05,4.39V17.64c-5.46,3-18.68,18.35-23.48,24C15.14,38.23,7.29,31.19,3.72,28Z"/></svg>